<?xml version="1.0" encoding="utf-8"?>
<!-- Generator: Adobe Illustrator 22.0.0, SVG Export Plug-In . SVG Version: 6.00 Build 0)  -->
<svg version="1.1" id="Layer_1" xmlns="http://www.w3.org/2000/svg" xmlns:xlink="http://www.w3.org/1999/xlink" x="0px" y="0px"
	 viewBox="0 0 294 345" style="enable-background:new 0 0 294 345;" xml:space="preserve">
<style type="text/css">
	.st0{fill:#111111;}
</style>
<path class="st0" d="M87.4,4.7L87.4,4.7c-3.1,1.7-4.3,5.7-2.5,8.8l35.4,63.8c1.7,3.1,5.7,4.3,8.8,2.5l0,0c3.1-1.7,4.3-5.7,2.5-8.8
	L96.2,7.3C94.5,4.1,90.5,3,87.4,4.7z"/>
<path class="st0" d="M286.4,135c0-11.2-9.2-20.4-20.4-20.4s-20.4,9.2-20.4,20.4v85c0,11.2,9.2,20.4,20.4,20.4s20.4-9.2,20.4-20.4
	V135z"/>
<path class="st0" d="M201.4,232c0-11.2-9.2-20.4-20.4-20.4s-20.4,9.2-20.4,20.4v85c0,11.2,9.2,20.4,20.4,20.4s20.4-9.2,20.4-20.4
	V232z"/>
<path class="st0" d="M206.6,4.7L206.6,4.7c3.1,1.7,4.3,5.7,2.5,8.8l-35.4,63.8c-1.7,3.1-5.7,4.3-8.8,2.5l0,0
	c-3.1-1.7-4.3-5.7-2.5-8.8l35.4-63.8C199.5,4.1,203.5,3,206.6,4.7z"/>
<path class="st0" d="M48.4,135c0-11.2-9.2-20.4-20.4-20.4S7.6,123.8,7.6,135v85c0,11.2,9.2,20.4,20.4,20.4s20.4-9.2,20.4-20.4V135z"
	/>
<path class="st0" d="M133.4,232c0-11.2-9.2-20.4-20.4-20.4s-20.4,9.2-20.4,20.4v85c0,11.2,9.2,20.4,20.4,20.4s20.4-9.2,20.4-20.4
	V232z"/>
<path class="st0" d="M56,118.1V250c0,12.2,9.8,22,22,22h138c12.2,0,22-9.8,22-22V118.1H56z"/>
<path class="st0" d="M147,27c-50.2,0-90.9,37.6-91,83.9h182C237.9,64.6,197.2,27,147,27z M105,77.6c-4.2,0-7.6-3.4-7.6-7.6
	s3.4-7.6,7.6-7.6s7.6,3.4,7.6,7.6S109.2,77.6,105,77.6z M189,77.6c-4.2,0-7.6-3.4-7.6-7.6s3.4-7.6,7.6-7.6s7.6,3.4,7.6,7.6
	S193.2,77.6,189,77.6z"/>
</svg>
